<?xml version="1.0" encoding="UTF-8" standalone="no"?>
<svg width="1200" height="630" viewBox="0 0 1200 630" xmlns="http://www.w3.org/2000/svg">
  <rect width="1200" height="630" fill="#f8f9fa"/>
  <rect x="150" y="100" width="900" height="430" rx="10" ry="10" fill="#ffffff" stroke="#e0e0e0" stroke-width="2"/>
  
  <!-- Header section -->
  <rect x="200" y="150" width="800" height="80" rx="5" ry="5" fill="#f5f5f5"/>
  <rect x="250" y="170" width="300" height="20" rx="3" ry="3" fill="#3498db"/>
  <rect x="250" y="200" width="200" height="15" rx="3" ry="3" fill="#95a5a6"/>
  
  <!-- Left column -->
  <rect x="200" y="260" width="250" height="220" rx="5" ry="5" fill="#f5f5f5"/>
  <circle cx="325" cy="310" r="40" fill="#3498db"/>
  <rect x="250" y="370" width="150" height="15" rx="3" ry="3" fill="#95a5a6"/>
  <rect x="250" y="395" width="150" height="15" rx="3" ry="3" fill="#95a5a6"/>
  <rect x="250" y="420" width="150" height="15" rx="3" ry="3" fill="#95a5a6"/>
  <rect x="250" y="445" width="150" height="15" rx="3" ry="3" fill="#95a5a6"/>
  
  <!-- Right column -->
  <rect x="480" y="260" width="520" height="50" rx="5" ry="5" fill="#f5f5f5"/>
  <rect x="500" y="275" width="480" height="20" rx="3" ry="3" fill="#3498db"/>
  
  <rect x="480" y="330" width="520" height="150" rx="5" ry="5" fill="#f5f5f5"/>
  <rect x="500" y="350" width="480" height="15" rx="3" ry="3" fill="#95a5a6"/>
  <rect x="500" y="375" width="480" height="15" rx="3" ry="3" fill="#95a5a6"/>
  <rect x="500" y="400" width="480" height="15" rx="3" ry="3" fill="#95a5a6"/>
  <rect x="500" y="425" width="480" height="15" rx="3" ry="3" fill="#95a5a6"/>
  <rect x="500" y="450" width="300" height="15" rx="3" ry="3" fill="#95a5a6"/>
  
  <!-- Text overlay -->
  <text x="600" y="550" font-family="Arial, sans-serif" font-size="36" font-weight="bold" text-anchor="middle" fill="#2c3e50">Online PDF Resume</text>
</svg>